<svg id="Layer_1" data-name="Layer 1" xmlns="http://www.w3.org/2000/svg" viewBox="0 0 144.89 139.3">
    <defs>
        <style>
            .cls-1,
            .cls-2,
            .cls-3,
            .cls-4 {
                fill: #1d1d1b;
                stroke: #1d1d1b;
                stroke-miterlimit: 10;
            }

            .cls-1 {
                stroke-width: 0.71px;
            }

            .cls-2 {
                stroke-width: 0.34px;
            }

            .cls-3 {
                stroke-width: 0.83px;
            }

            .cls-4 {
                stroke-width: 0.33px;
            }
        </style>
    </defs>
    <rect class="cls-1" x="24.54" y="19.46" width="15" height="101" />
    <rect class="cls-2" x="47.04" y="19.46" width="3.41" height="101" />
    <rect class="cls-3" x="57.11" y="19.46" width="20.66" height="101" />
    <rect class="cls-4" x="80.66" y="19.46" width="3.22" height="101" />
    <rect class="cls-1" x="99.07" y="19.46" width="15" height="101" />
    <rect class="cls-2" x="118.13" y="19.46" width="3.56" height="101" />
    <path class="cls-2" d="M28.8.17V9.55H11.88V31.14H2.51V3.69A3.53,3.53,0,0,1,6,.17Z" transform="translate(-2.34 0)" />
    <path class="cls-2" d="M147.06,4.63V31.14h-9.38V9.56H120.79V.17H142.6A4.46,4.46,0,0,1,147.06,4.63Z"
        transform="translate(-2.34 0)" />
    <path class="cls-2" d="M2.51,112.85h9.38v16.89H33.48v9.39H6a3.53,3.53,0,0,1-3.52-3.52Z"
        transform="translate(-2.34 0)" />
    <path class="cls-2" d="M142.6,139.13H116.09v-9.38h21.58V112.86h9.39v21.81A4.46,4.46,0,0,1,142.6,139.13Z"
        transform="translate(-2.34 0)" />
</svg>