<svg id="Layer_1" data-name="Layer 1" xmlns="http://www.w3.org/2000/svg" viewBox="0 0 530.21 379.81">
    <defs>
        <style>
            .cls-1 {
                fill: #1d1d1b;
            }
        </style>
    </defs>
    <path class="cls-1"
        d="M35.41,458.38H32.33v-323h3.08Zm6.65,0H39v-323h3.08Zm13.36,0H45.69v-323h9.73Zm12.09,37.37q0,18.88-17.21,19.1V475.16q16.61.21,17.21,20.48Zm-4.07-.32a16,16,0,0,0-2.64-9.5,10.81,10.81,0,0,0-6.48-4.75v28a11.29,11.29,0,0,0,4.28-1.37,7.48,7.48,0,0,0,2.86-3,19.63,19.63,0,0,0,2-9.18Zm5.33-37.05H65.7v-323h3.07Zm13.36,0H72.35v-323h9.78Z"
        transform="translate(-32.33 -135.36)" />
    <path class="cls-1"
        d="M95.44,458.38H85.71v-323h9.73Zm6.7,0H99.06v-323h3.08Zm20.12,36.31a47,47,0,0,1-.52,7.39,36.1,36.1,0,0,1-1.46,6q-2.64,7.06-8.24,7.07-5.17,0-7.75-7.07a36.1,36.1,0,0,1-1.46-6,47,47,0,0,1-.52-7.39,41.25,41.25,0,0,1,1.92-13.51q2.64-7.4,7.81-7.39,5.61,0,8.24,7.39a42.33,42.33,0,0,1,1.46,6.23A46.12,46.12,0,0,1,122.26,494.69Zm-6.76-36.31h-9.78v-323h9.78ZM118,494.69q0-15.1-6-15.1-5.57,0-5.56,15.1,0,14.56,5.56,14.57Q118,509.26,118,494.69Zm4.12-36.31h-3.08v-323h3.08Zm13.36,0h-3.08v-323h3.08Z"
        transform="translate(-32.33 -135.36)" />
    <path class="cls-1"
        d="M148.81,458.38h-9.73v-323h9.73Zm13.36,0h-9.73v-323h9.73Zm11.44,49.82a12.74,12.74,0,0,1-2.89,5.28,5.16,5.16,0,0,1-3.6,1.58h-.33q-9.28,0-9.35-20.48,0-9.29,1.43-13.72c1.51-4.57,4-6.86,7.59-6.86,2.86,0,4.76,1.12,5.72,3.38v.1c.25.64.49,1.27.71,1.9a13.33,13.33,0,0,1,.5,1.8,2,2,0,0,1,.24.79c0,.25,0,.54,0,.9a2.83,2.83,0,0,1-.6,2,3.3,3.3,0,0,1-1.6.64c-.58,0-1.08-.57-1.48-1.69-.11-.43-.2-.78-.28-1.06s-.14-.56-.22-.84a4.62,4.62,0,0,0-.77-1.59,1.49,1.49,0,0,0-1.21-.63h-2.19q-3.75,0-3.91,14.78v.74q0,14,5.33,14.25h.17c1.32,0,2.34-1.2,3.08-3.59.36-1.2.86-1.8,1.48-1.8a2.39,2.39,0,0,1,1.49.74,2.72,2.72,0,0,1,.88,2A7.47,7.47,0,0,1,173.61,508.2Zm-4.73-49.82h-3.13v-323h3.13Zm13.3,0H179.1v-323h3.08Zm6.71,0h-3.08v-323h3.08Z"
        transform="translate(-32.33 -135.36)" />
    <path class="cls-1"
        d="M202.19,458.38h-9.73v-323h9.73Zm26.22,46.55a11.35,11.35,0,0,1-2.58,7.18,7.94,7.94,0,0,1-6.49,2.95h-.22a8.58,8.58,0,0,1-7-3.27,10.41,10.41,0,0,1-2.48-6.44V477q0-2.32,2-2.43t2,2.43v28a4,4,0,0,0,1.32,3.22,6.64,6.64,0,0,0,3.79,1.32c3.66-.14,5.55-1.66,5.66-4.54V477q0-2.43,2-2.43c1.28,0,2,.81,2,2.43Zm-12.86-46.55h-3.08v-323h3.08Zm6.71,0h-3.14v-323h3.14Zm6.65,0h-3.08v-323h3.08Zm13.36,0h-9.79v-323h9.79Z"
        transform="translate(-32.33 -135.36)" />
    <path class="cls-1"
        d="M248.92,458.38h-3.08v-323h3.08Zm13.36,0H259.2v-323h3.08Zm20.28,33.78c0,2.39-.62,3.59-1.87,3.59H264c-1.13,0-1.7-1.24-1.7-3.7,0-2.25.57-3.38,1.7-3.38h16.71c1.25,0,1.87,1.09,1.87,3.28Zm-13.63-33.78h-3.08v-323h3.08Zm13.36,0H272.5v-323h9.79Zm13.36,0h-9.79v-323h9.79Z"
        transform="translate(-32.33 -135.36)" />
    <path class="cls-1"
        d="M309,458.38h-9.73v-323H309Zm21.16,56.68c-.69,0-1.24-.46-1.65-1.37L325.77,501l-2.36,12.14c-.33,1.27-.88,1.9-1.65,1.9h-1.93c-.95,0-1.5-1-1.65-2.95l-2.47-34.94v-.32a2.07,2.07,0,0,1,1.87-2.32h.05c1.21,0,1.93.77,2.15,2.32l1.81,24.38c.26-1.54.55-3.13.88-4.75l1-4.85a2.06,2.06,0,0,1,2.31-1.8,2.13,2.13,0,0,1,2.36,1.8l2,9.71,1.81-24.6c.08-1.47.73-2.21,2-2.21h.39c1,.21,1.54,1.12,1.54,2.74l-2.53,34.84c-.26,1.9-.81,2.88-1.65,2.95ZM329,458.38h-9.78v-323H329Zm6.66,0h-3.08v-323h3.08Zm6.65,0h-3.08v-323h3.08Zm6.7,0H346v-323H349Z"
        transform="translate(-32.33 -135.36)" />
    <path class="cls-1"
        d="M362.33,458.38H352.6v-323h9.73Zm6.7,0H366v-323H369Zm20,53.2a3.1,3.1,0,0,1,.08.42,3.89,3.89,0,0,1,0,.53,2.59,2.59,0,0,1-1.27,2.43,3.69,3.69,0,0,1-.87.1c-.88,0-1.45-.67-1.71-2l-2-10h-8.41l-1.49,10c-.33,1.26-.91,1.9-1.76,1.9a4.35,4.35,0,0,1-1-.11,2.25,2.25,0,0,1-1.37-2.21,3.87,3.87,0,0,1,.11-.95q1.53-8.67,3.13-17.63t3.14-17.84a2.41,2.41,0,0,1,.49-1.22,1.35,1.35,0,0,1,1.1-.47h3.63c.84,0,1.41.59,1.7,1.79s.58,3.56,1.29,7.5,1.7,9.39,2.95,16.36Zm-13.3-53.2h-3.08v-323h3.08Zm3.4,21.64h-.16l-3.08,17.41c0,.15.06.22.17.22h6a.2.2,0,0,0,.22-.22Zm10-21.64H386v-323H389Zm13.36,0h-9.78v-323h9.78Z"
        transform="translate(-32.33 -135.36)" />
    <path class="cls-1"
        d="M409.05,458.38H406v-323h3.07Zm13.36,0h-9.78v-323h9.78Zm17.87,51.19a10.1,10.1,0,0,1-2.42,3.28,10.89,10.89,0,0,1-2.83,1.69,9,9,0,0,1-3.38.63,7.32,7.32,0,0,1-5.11-2.53,7.92,7.92,0,0,1-2-2.91,10.55,10.55,0,0,1-.72-4.06q0-3.27,2-3.27c1.31,0,2,.88,2,2.64v.1a5.41,5.41,0,0,0,.17,1.37,3.14,3.14,0,0,0,.38.95c.66,1.2,1.93,1.87,3.8,2,3.33-.07,5-1.52,5.05-4.33q0-3.27-3.62-6.54c-1.95-1.9-4-3.8-6.05-5.7-2.27-2.68-3.41-5.21-3.41-7.61v-.21a12.1,12.1,0,0,1,2.42-7.81,8,8,0,0,1,5.77-3.06,14.71,14.71,0,0,1,3,.48A6,6,0,0,1,437.8,476a8.33,8.33,0,0,1,2.29,2.69,9,9,0,0,1,1,3.43c0,1.54-.44,2.53-1.32,2.95a3.65,3.65,0,0,1-.83.11c-1,0-1.61-.78-1.86-2.32a3,3,0,0,0-.94-2.33,5.07,5.07,0,0,0-3.35-.84,4.22,4.22,0,0,0-3.33,1.58,6,6,0,0,0-1.35,4q.12,2.64,4,5.81c.92.85,1.88,1.78,2.89,2.8s1.95,2,2.83,2.9a16.72,16.72,0,0,1,2.53,4.07,11.21,11.21,0,0,1,.93,4.48A10.49,10.49,0,0,1,440.28,509.57Zm-11.22-51.19H426v-323h3.07Zm13.36,0h-9.78v-323h9.78Zm13.36,0H452.7v-323h3.08Z"
        transform="translate(-32.33 -135.36)" />
    <path class="cls-1"
        d="M462.43,458.38h-3.08v-323h3.08Zm6.65,0H466v-323h3.07Zm13.36,0h-9.73v-323h9.73ZM496,478c0,1.76-.62,2.64-1.87,2.64h-6.21v32c0,1.61-.62,2.42-1.87,2.42-1.43,0-2.14-.84-2.14-2.53V480.65h-6.22c-1.2,0-1.83-1-1.86-3,0-1.76.62-2.63,1.86-2.63h16.44C495.4,475.06,496,476,496,478Zm-.22-19.63H486v-323h9.78Zm13.36,0h-3.08v-323h3.08Z"
        transform="translate(-32.33 -135.36)" />
    <path class="cls-1"
        d="M522.46,458.38h-9.73v-323h9.73Zm6.71,0h-3.08v-323h3.08Zm19.13,53.73c0,1.83-.61,2.74-1.81,2.74H530.27V475.37H546c1.25,0,1.87.88,1.87,2.64s-.62,2.75-1.87,2.75H534.23v10.55h10.06q1.92,0,1.92,2.64,0,2.85-1.92,2.85H534.23v12.56h12.26C547.69,509.36,548.3,510.28,548.3,512.11Zm-5.77-53.73h-9.79v-323h9.79Zm13.3,0h-3.08v-323h3.08Zm6.71,0h-3.08v-323h3.08Z"
        transform="translate(-32.33 -135.36)" />
</svg>